<?xml version="1.0" encoding="utf-8"?>
<!-- Generator: Adobe Illustrator 25.2.3, SVG Export Plug-In . SVG Version: 6.00 Build 0)  -->
<svg version="1.1" id="Layer_1" xmlns="http://www.w3.org/2000/svg" xmlns:xlink="http://www.w3.org/1999/xlink" x="0px" y="0px"
	 viewBox="0 0 78.09 78.09" style="enable-background:new 0 0 78.09 78.09;" xml:space="preserve">
<style type="text/css">
	.st0{fill:#262624;}
	.st1{fill:#231F20;}
	.st2{fill:#FFFFFF;}
	.st3{fill:#80E400;}
	.st4{fill:#FFFFFF;stroke:#262624;stroke-width:3;stroke-miterlimit:10;}
	.st5{fill:url(#SVGID_1_);}
	.st6{fill:url(#SVGID_2_);}
	.st7{fill:url(#SVGID_3_);}
	.st8{fill:url(#SVGID_4_);}
	.st9{fill:url(#SVGID_5_);}
	.st10{fill:url(#SVGID_6_);}
	.st11{fill:url(#SVGID_7_);}
	.st12{fill:url(#SVGID_8_);}
	.st13{fill:url(#SVGID_9_);}
	.st14{fill:url(#SVGID_10_);}
	.st15{fill:url(#SVGID_11_);}
	.st16{fill:url(#SVGID_12_);}
	.st17{fill:url(#SVGID_13_);}
	.st18{fill:url(#SVGID_14_);}
	.st19{fill:url(#SVGID_15_);}
	.st20{fill:url(#SVGID_16_);}
	.st21{fill:url(#SVGID_17_);}
	.st22{fill:url(#SVGID_18_);}
	.st23{fill:url(#SVGID_19_);}
	.st24{fill:url(#SVGID_20_);}
	.st25{fill:url(#SVGID_21_);}
	.st26{fill:url(#SVGID_22_);}
	.st27{fill:url(#SVGID_23_);}
	.st28{fill:url(#SVGID_24_);}
	.st29{fill:url(#SVGID_25_);}
	.st30{fill:url(#SVGID_26_);}
	.st31{fill:url(#SVGID_27_);}
	.st32{fill:url(#SVGID_28_);}
	.st33{fill:url(#SVGID_29_);}
	.st34{fill:url(#SVGID_30_);}
	.st35{fill:url(#SVGID_31_);}
	.st36{fill:url(#SVGID_32_);}
	.st37{fill:url(#SVGID_33_);}
	.st38{fill:url(#SVGID_34_);}
	.st39{fill:url(#SVGID_35_);}
</style>
<g>
	<linearGradient id="SVGID_1_" gradientUnits="userSpaceOnUse" x1="-82.4922" y1="-161.7913" x2="156.9383" y2="110.1705">
		<stop  offset="0" style="stop-color:#D6DE23"/>
		<stop  offset="1" style="stop-color:#80E400"/>
	</linearGradient>
	<path class="st5" d="M61.74,0H57.4v7.54h4.33c4.86,0,8.82,3.94,8.82,8.8v4.35h7.54v-4.35C78.09,7.33,70.76,0,61.74,0z"/>
	<linearGradient id="SVGID_2_" gradientUnits="userSpaceOnUse" x1="-115.566" y1="-132.6736" x2="123.8644" y2="139.2882">
		<stop  offset="0" style="stop-color:#D6DE23"/>
		<stop  offset="1" style="stop-color:#80E400"/>
	</linearGradient>
	<path class="st6" d="M7.54,16.34c0-4.86,3.96-8.8,8.82-8.8h4.33V0h-4.33C7.33,0,0,7.33,0,16.34v4.35h7.54V16.34z"/>
	<linearGradient id="SVGID_3_" gradientUnits="userSpaceOnUse" x1="-144.771" y1="-106.9621" x2="94.6595" y2="164.9997">
		<stop  offset="0" style="stop-color:#D6DE23"/>
		<stop  offset="1" style="stop-color:#80E400"/>
	</linearGradient>
	<path class="st7" d="M7.54,61.74v-4.35H0v4.35c0,9.03,7.33,16.36,16.36,16.36h4.33v-7.54h-4.33C11.5,70.56,7.54,66.6,7.54,61.74z"
		/>
	<linearGradient id="SVGID_4_" gradientUnits="userSpaceOnUse" x1="-111.6932" y1="-136.0832" x2="127.7373" y2="135.8786">
		<stop  offset="0" style="stop-color:#D6DE23"/>
		<stop  offset="1" style="stop-color:#80E400"/>
	</linearGradient>
	<path class="st8" d="M70.56,61.74c0,4.86-3.96,8.82-8.82,8.82H57.4v7.54h4.33c9.03,0,16.36-7.33,16.36-16.36v-4.35h-7.54V61.74z"/>
	<linearGradient id="SVGID_5_" gradientUnits="userSpaceOnUse" x1="-113.6312" y1="-134.377" x2="125.7992" y2="137.5848">
		<stop  offset="0" style="stop-color:#D6DE23"/>
		<stop  offset="1" style="stop-color:#80E400"/>
	</linearGradient>
	<path class="st9" d="M65.18,39.05c0-14.41-11.72-26.13-26.13-26.13S12.92,24.64,12.92,39.05c0,14.41,11.72,26.13,26.13,26.13
		S65.18,53.45,65.18,39.05z M37.35,57.55c-9.46-0.86-16.9-8.83-16.9-18.51c0-8.98,6.41-16.5,14.89-18.22l-8.97,21.3h16.96
		L37.35,57.55z M43.61,57.05l7.98-20.58h-16.7l6.67-15.83c9.06,1.23,16.08,9,16.08,18.4C57.64,47.72,51.66,55,43.61,57.05z"/>
</g>
</svg>
